<svg width="216" height="48" viewBox="0 0 216 48" fill="none" xmlns="http://www.w3.org/2000/svg">
<g clip-path="url(#clip0_661_670)">
<path fill-rule="evenodd" clip-rule="evenodd" d="M42.3825 25.9326L44.7919 15.75H15.8801C10.5861 15.7119 7.28521 17.8635 6.24474 22.1855L0 47.9962H26.2314C34.2611 47.981 37.7415 46.5816 39.6143 37.6347H24.9828C24.189 39.249 22.914 40.5791 21.3325 41.4425C19.7511 42.3059 17.9406 42.6604 16.1493 42.4575L19.9847 26.0202C21.0029 22.6844 23.9175 21.1358 28.7285 21.3744C28.3467 22.8976 27.9604 24.4158 27.5696 25.9288L42.3825 25.9326Z" fill="#1A1A1A"/>
<path fill-rule="evenodd" clip-rule="evenodd" d="M86.9718 15.7498H57.8175C52.5235 15.7194 49.2265 17.8652 48.1841 22.1816L41.9355 47.9961H68.1688C76.1986 47.9808 80.5781 46.907 81.9603 37.6345H81.9412L86.9718 15.7498ZM66.905 37.6459C66.1092 39.2544 64.835 40.5788 63.2565 41.4382C61.6779 42.2976 59.8718 42.6502 58.0848 42.4478L61.9222 26.0124C62.934 22.6779 65.8486 21.1299 70.6659 21.3686L67.0291 37.0918L66.9012 37.663L66.905 37.6459Z" fill="#1A1A1A"/>
<path fill-rule="evenodd" clip-rule="evenodd" d="M95.4257 0L86.1626 38.9445C84.6926 45.2849 86.6227 47.9981 91.1721 48H105.456L105.781 46.0027H104.614C101.178 46.0496 99.9687 43.8721 100.987 39.47L110.267 0H95.4257Z" fill="#1A1A1A"/>
<path fill-rule="evenodd" clip-rule="evenodd" d="M150.116 25.9325L152.525 15.7498H123.617C118.323 15.7194 115.026 17.8652 113.982 22.1816L107.737 47.998H133.969C141.998 47.9827 145.479 46.5833 147.352 37.6364H132.718C131.924 39.2507 130.649 40.5808 129.068 41.4442C127.486 42.3076 125.676 42.6622 123.885 42.4592L127.722 26.0238C128.734 22.6893 131.648 21.1413 136.466 21.38L135.305 25.9344L150.116 25.9325Z" fill="#1A1A1A"/>
<path fill-rule="evenodd" clip-rule="evenodd" d="M191.965 25.9325L194.374 15.7498H165.474C160.18 15.7194 156.883 17.8652 155.839 22.1816L149.594 47.998H175.823C183.853 47.9827 187.333 46.5833 189.206 37.6364H174.573C173.779 39.2507 172.504 40.5808 170.922 41.4442C169.341 42.3076 167.531 42.6622 165.739 42.4592L169.577 26.0238C170.588 22.6893 173.503 21.1413 178.32 21.38L177.16 25.9344L191.965 25.9325Z" fill="#1A1A1A"/>
<path fill-rule="evenodd" clip-rule="evenodd" d="M201.158 2.49048L198.932 11.6069H207.879C209.41 11.8543 210.979 11.5231 212.278 10.678C213.577 9.83283 214.514 8.53459 214.904 7.03724L216 2.49238L201.158 2.49048ZM197.93 15.6986L192.25 38.9446C190.78 45.2849 192.711 47.9981 197.26 48H211.544L211.869 46.0027H210.702C207.266 46.0497 206.057 43.8728 207.075 39.472L212.802 15.7005L197.93 15.6986Z" fill="#1A1A1A"/>
</g>
<defs>
<clipPath id="clip0_661_670">
<rect width="216" height="48" fill="white"/>
</clipPath>
</defs>
</svg>
